<?xml version="1.0" encoding="UTF-8" standalone="no"?>
<!-- Created with Inkscape (http://www.inkscape.org/) -->

<svg
   xmlns:dc="http://purl.org/dc/elements/1.1/"
   xmlns:cc="http://creativecommons.org/ns#"
   xmlns:rdf="http://www.w3.org/1999/02/22-rdf-syntax-ns#"
   xmlns:svg="http://www.w3.org/2000/svg"
   xmlns="http://www.w3.org/2000/svg"
   xmlns:sodipodi="http://sodipodi.sourceforge.net/DTD/sodipodi-0.dtd"
   xmlns:inkscape="http://www.inkscape.org/namespaces/inkscape"
   width="1920"
   height="1080"
   viewBox="0 0 507.99999 285.75001"
   version="1.1"
   id="svg8"
   inkscape:version="0.92.1 r15371"
   sodipodi:docname="splashscreen.svg"
   inkscape:export-filename="E:\Games\Unity Projects\TownBuilder\Assets\Textures\splashscreen.png"
   inkscape:export-xdpi="96"
   inkscape:export-ydpi="96">
  <defs
     id="defs2" />
  <sodipodi:namedview
     id="base"
     pagecolor="#ffffff"
     bordercolor="#666666"
     borderopacity="1.0"
     inkscape:pageopacity="0.0"
     inkscape:pageshadow="2"
     inkscape:zoom="0.35"
     inkscape:cx="602.5767"
     inkscape:cy="491.69072"
     inkscape:document-units="mm"
     inkscape:current-layer="layer1"
     showgrid="false"
     units="px"
     inkscape:snap-global="false"
     inkscape:snap-page="true"
     inkscape:window-width="1920"
     inkscape:window-height="1017"
     inkscape:window-x="-8"
     inkscape:window-y="-8"
     inkscape:window-maximized="1" />
  <metadata
     id="metadata5">
    <rdf:RDF>
      <cc:Work
         rdf:about="">
        <dc:format>image/svg+xml</dc:format>
        <dc:type
           rdf:resource="http://purl.org/dc/dcmitype/StillImage" />
        <dc:title></dc:title>
      </cc:Work>
    </rdf:RDF>
  </metadata>
  <g
     inkscape:label="Calque 1"
     inkscape:groupmode="layer"
     id="layer1"
     transform="translate(0,-11.249983)">
    <rect
       style="opacity:1;fill:#000000;fill-opacity:1;stroke:none;stroke-width:0.31199998;stroke-linecap:butt;stroke-linejoin:round;stroke-miterlimit:4;stroke-dasharray:none;stroke-dashoffset:0;stroke-opacity:1"
       id="rect4485"
       width="508"
       height="285.75"
       x="0"
       y="11.249983" />
    <g
       id="g4620"
       transform="translate(-397.63095,52.916667)">
      <path
         inkscape:connector-curvature="0"
         d="m 154.80235,118.28663 c -0.79091,8.22501 -1.72302,16.43638 -2.6234,24.65019 -1.28301,11.36657 -2.23019,22.76365 -3.08499,34.16864 -0.0728,0.95108 -0.14552,1.90215 -0.21828,2.85322 0,0 -4.01967,1.9994 -4.01967,1.9994 v 0 c 0.11368,-0.97067 0.22735,-1.94133 0.34102,-2.91199 1.25032,-11.43846 2.23268,-22.90579 3.4386,-34.34911 0.76557,-8.07126 1.5623,-16.1522 1.87635,-24.25595 0,0 4.29037,-2.1544 4.29037,-2.1544 z"
         id="path4491"
         style="opacity:1;fill:#000000;fill-opacity:1;stroke:none;stroke-width:0.31199998;stroke-linecap:butt;stroke-linejoin:round;stroke-miterlimit:4;stroke-dasharray:none;stroke-dashoffset:0;stroke-opacity:1" />
      <path
         inkscape:connector-curvature="0"
         d="m 176.40363,114.59192 c -0.42807,6.08843 -0.67017,12.18515 -0.85087,18.28634 -0.28257,11.80994 -0.27191,23.62417 -0.20655,35.43647 0.0573,5.51416 0.0227,2.90101 0.0995,7.8395 0,0 -3.91924,1.9967 -3.91924,1.9967 v 0 c 0.0819,-5.01289 0.0434,-2.36361 0.11221,-7.94789 0.10461,-11.81454 0.1664,-23.62933 0.207,-35.44425 0.0244,-4.03672 0.0213,-5.47833 0.0855,-9.3489 0.0417,-2.51385 0.18611,-5.03272 0.19815,-7.54666 0.002,-0.3581 -0.0259,-0.71574 -0.0389,-1.07361 0,0 4.31322,-2.1977 4.31322,-2.1977 z"
         id="path4493"
         style="opacity:1;fill:#000000;fill-opacity:1;stroke:none;stroke-width:0.31199998;stroke-linecap:butt;stroke-linejoin:round;stroke-miterlimit:4;stroke-dasharray:none;stroke-dashoffset:0;stroke-opacity:1" />
      <path
         inkscape:connector-curvature="0"
         d="m 157.34344,98.501472 c 0.0694,-2.407897 0.0683,-4.817079 0.0668,-7.22575 0.0396,-2.043885 -0.0946,-4.091876 -0.0127,-6.134616 0.0189,-0.434268 0.15755,-0.806902 0.36593,-1.177975 0,0 4.49779,-1.879433 4.49779,-1.879433 v 0 c -0.35817,0.212373 -0.48342,0.480703 -0.55658,0.899972 -0.20089,2.041834 -0.022,4.108659 -0.10312,6.156462 -0.001,2.385957 -0.003,4.772467 0.0669,7.15763 0,0 -4.32502,2.20371 -4.32502,2.20371 z"
         id="path4495"
         style="opacity:1;fill:#000000;fill-opacity:1;stroke:none;stroke-width:0.31199998;stroke-linecap:butt;stroke-linejoin:round;stroke-miterlimit:4;stroke-dasharray:none;stroke-dashoffset:0;stroke-opacity:1" />
      <path
         inkscape:connector-curvature="0"
         d="m 162.22212,82.64023 c 1.26565,-0.360812 2.51828,-0.704106 3.74292,-1.189217 0.1648,-0.08021 0.32961,-0.160428 0.49441,-0.240641 0,0 -3.78547,3.004909 -3.78547,3.004909 v 0 c -0.16898,0.07138 -0.33797,0.142762 -0.50695,0.214144 -1.24477,0.46432 -2.53246,0.779047 -3.80747,1.148268 0,0 3.86256,-2.937463 3.86256,-2.937463 z"
         id="path4497"
         style="opacity:1;fill:#000000;fill-opacity:1;stroke:none;stroke-width:0.31199998;stroke-linecap:butt;stroke-linejoin:round;stroke-miterlimit:4;stroke-dasharray:none;stroke-dashoffset:0;stroke-opacity:1" />
      <path
         inkscape:connector-curvature="0"
         d="m 149.87891,73.390405 c 3.71156,0.447627 7.40818,0.01098 11.07861,-0.54442 4.68275,-0.866833 9.29367,-2.065618 13.95127,-3.053771 0.68124,-0.135035 1.36248,-0.27007 2.04373,-0.405106 0,0 -3.67709,2.781967 -3.67709,2.781967 v 0 c -0.6711,0.130273 -1.34219,0.260546 -2.01328,0.390816 -4.65216,0.986031 -9.25587,2.19882 -13.94303,3.013628 -3.77278,0.566473 -7.56383,0.944943 -11.38193,0.626465 0,0 3.94172,-2.809579 3.94172,-2.809579 z"
         id="path4499"
         style="opacity:1;fill:#000000;fill-opacity:1;stroke:none;stroke-width:0.31199998;stroke-linecap:butt;stroke-linejoin:round;stroke-miterlimit:4;stroke-dasharray:none;stroke-dashoffset:0;stroke-opacity:1" />
      <path
         inkscape:connector-curvature="0"
         d="m 146.68605,72.600616 c 3.03089,-3.306181 6.01429,-6.646468 8.88805,-10.091761 2.9351,-3.710544 5.97765,-7.370234 8.42683,-11.429574 0.15931,-0.320331 0.31862,-0.640665 0.47793,-0.960996 0,0 4.32914,-1.958512 4.32914,-1.958512 v 0 c -0.17089,0.339672 -0.34177,0.679344 -0.51265,1.019014 -2.51252,4.107574 -5.66133,7.780877 -8.60376,11.579343 -2.78309,3.379571 -5.66217,6.67012 -8.56496,9.945302 0,0 -4.44058,1.897184 -4.44058,1.897184 z"
         id="path4501"
         style="opacity:1;fill:#000000;fill-opacity:1;stroke:none;stroke-width:0.31199998;stroke-linecap:butt;stroke-linejoin:round;stroke-miterlimit:4;stroke-dasharray:none;stroke-dashoffset:0;stroke-opacity:1" />
      <path
         inkscape:connector-curvature="0"
         d="m 169.7607,47.373688 c 1.8156,2.64809 3.57763,5.331328 5.33742,8.016788 2.07752,3.257473 4.48328,6.258544 7.04227,9.144417 0,0 -3.94763,2.382293 -3.94763,2.382293 v 0 c -2.52184,-2.938677 -4.93176,-5.961229 -7.04324,-9.213533 -1.79673,-2.661898 -3.58146,-5.337331 -5.5712,-7.861067 0,0 4.18238,-2.468898 4.18238,-2.468898 z"
         id="path4503"
         style="opacity:1;fill:#000000;fill-opacity:1;stroke:none;stroke-width:0.31199998;stroke-linecap:butt;stroke-linejoin:round;stroke-miterlimit:4;stroke-dasharray:none;stroke-dashoffset:0;stroke-opacity:1" />
      <path
         inkscape:connector-curvature="0"
         d="m 182.82038,72.776714 c -0.15703,5.328714 -0.19519,10.660655 -0.1618,15.991316 0.0776,6.235814 0.2223,12.47052 0.40348,18.70411 0.0188,0.48048 0.0376,0.96097 0.0565,1.44145 0,0 -4.18479,2.13878 -4.18479,2.13878 v 0 c 0.007,-0.49351 0.0135,-0.98703 0.0203,-1.48055 0.0216,-6.27396 -0.0479,-12.547562 -0.177,-18.820224 -0.0928,-5.261914 -0.0935,-10.525652 -0.25222,-15.786206 0,0 4.29552,-2.188676 4.29552,-2.188676 z"
         id="path4505"
         style="opacity:1;fill:#000000;fill-opacity:1;stroke:none;stroke-width:0.31199998;stroke-linecap:butt;stroke-linejoin:round;stroke-miterlimit:4;stroke-dasharray:none;stroke-dashoffset:0;stroke-opacity:1" />
      <path
         inkscape:connector-curvature="0"
         d="m 148.46179,82.966837 c -0.0339,4.95413 0.41935,9.884386 0.94281,14.805263 0.50005,4.57847 0.93987,9.16342 1.35216,13.75056 0,0 -4.11081,2.13216 -4.11081,2.13216 v 0 c -0.25563,-4.6202 -0.61491,-9.23455 -1.16287,-13.830233 -0.55225,-4.869738 -1.04747,-9.743607 -1.30088,-14.638607 0,0 4.27959,-2.219143 4.27959,-2.219143 z"
         id="path4507"
         style="opacity:1;fill:#000000;fill-opacity:1;stroke:none;stroke-width:0.31199998;stroke-linecap:butt;stroke-linejoin:round;stroke-miterlimit:4;stroke-dasharray:none;stroke-dashoffset:0;stroke-opacity:1" />
      <path
         inkscape:connector-curvature="0"
         d="m 152.00647,116.03277 c 3.53703,0.1004 7.07423,-0.0985 10.60716,-0.24599 5.23665,-0.21094 10.47689,-0.30624 15.71647,-0.41003 0,0 -3.72864,2.71611 -3.72864,2.71611 v 0 c -5.2149,0.0257 -10.43004,0.12202 -15.6395,0.37234 -3.62768,0.17702 -7.25556,0.37869 -10.88789,0.42462 0,0 3.9324,-2.85705 3.9324,-2.85705 z"
         id="path4509"
         style="opacity:1;fill:#000000;fill-opacity:1;stroke:none;stroke-width:0.31199998;stroke-linecap:butt;stroke-linejoin:round;stroke-miterlimit:4;stroke-dasharray:none;stroke-dashoffset:0;stroke-opacity:1" />
      <path
         inkscape:connector-curvature="0"
         d="m 179.55505,70.778425 c 2.96319,-2.685523 5.96998,-5.32099 8.90952,-8.033234 2.01426,-1.870244 4.05502,-3.736298 5.68023,-5.964047 0,0 4.36313,-1.89162 4.36313,-1.89162 v 0 c -1.63125,2.318179 -3.76397,4.206309 -5.82912,6.129705 -2.87009,2.651977 -5.79176,5.247079 -8.65332,7.907483 0,0 -4.47044,1.851713 -4.47044,1.851713 z"
         id="path4511"
         style="opacity:1;fill:#000000;fill-opacity:1;stroke:none;stroke-width:0.31199998;stroke-linecap:butt;stroke-linejoin:round;stroke-miterlimit:4;stroke-dasharray:none;stroke-dashoffset:0;stroke-opacity:1" />
      <path
         inkscape:connector-curvature="0"
         d="m 186.00667,37.106225 c 2.25052,2.484517 4.73889,4.741153 7.20783,7.004566 2.03299,1.788832 4.07356,3.569901 6.19549,5.25272 0,0 -3.97621,2.488919 -3.97621,2.488919 v 0 c -2.04743,-1.760868 -4.05712,-3.564972 -6.08625,-5.346866 -2.522,-2.278581 -5.07667,-4.522529 -7.50923,-6.896656 0,0 4.16837,-2.502683 4.16837,-2.502683 z"
         id="path4513"
         style="opacity:1;fill:#000000;fill-opacity:1;stroke:none;stroke-width:0.31199998;stroke-linecap:butt;stroke-linejoin:round;stroke-miterlimit:4;stroke-dasharray:none;stroke-dashoffset:0;stroke-opacity:1" />
      <path
         inkscape:connector-curvature="0"
         d="m 180.69734,39.0183 c -1.80485,1.660236 -3.53649,3.389834 -5.20559,5.186405 -0.72241,0.768953 -1.46562,1.51716 -2.18975,2.284412 0,0 -4.41257,1.842982 -4.41257,1.842982 v 0 c 0.73761,-0.783172 1.50428,-1.53579 2.25446,-2.306969 1.63447,-1.769385 3.29118,-3.519693 5.09127,-5.123637 0,0 4.46218,-1.883193 4.46218,-1.883193 z"
         id="path4515"
         style="opacity:1;fill:#000000;fill-opacity:1;stroke:none;stroke-width:0.31199998;stroke-linecap:butt;stroke-linejoin:round;stroke-miterlimit:4;stroke-dasharray:none;stroke-dashoffset:0;stroke-opacity:1" />
      <path
         inkscape:connector-curvature="0"
         d="m 200.44286,53.389186 c 1.5816,1.537721 3.37984,2.83374 5.10865,4.199316 1.21114,0.994859 2.64127,1.721241 3.76856,2.815851 0.81432,1.086901 0.72532,2.43263 0.63295,3.719045 -0.74723,3.382266 -1.7461,6.705811 -2.62462,10.056801 -1.30253,4.883857 -1.79931,9.901582 -2.1094,14.92921 -0.25959,5.152152 -0.24707,10.311807 -0.2057,15.468571 0.0192,1.81076 0.0611,3.62114 0.0978,5.43159 0,0 -4.29029,2.18836 -4.29029,2.18836 v 0 c 0.0208,-1.84023 0.0488,-3.68036 0.0707,-5.52058 0.0573,-5.1831 0.114,-10.367441 0.30565,-15.547591 0.26638,-5.037984 0.71658,-10.067533 1.98824,-14.968156 0.83061,-3.301923 1.74605,-6.584026 2.49997,-9.903653 0.0866,-1.112372 0.18601,-2.359112 -0.49094,-3.318052 -1.10281,-1.079098 -2.48078,-1.833158 -3.65513,-2.828526 -1.74891,-1.389536 -3.54594,-2.721313 -5.23011,-4.189047 0,0 4.13371,-2.533139 4.13371,-2.533139 z"
         id="path4517"
         style="opacity:1;fill:#000000;fill-opacity:1;stroke:none;stroke-width:0.31199998;stroke-linecap:butt;stroke-linejoin:round;stroke-miterlimit:4;stroke-dasharray:none;stroke-dashoffset:0;stroke-opacity:1" />
      <path
         inkscape:connector-curvature="0"
         d="m 184.76825,114.61801 c 2.54755,-0.90473 5.06867,-1.86668 7.56108,-2.91361 3.31574,-1.38705 6.66935,-2.66616 10.08823,-3.77599 1.04554,-0.21825 3.16028,-1.2218 4.1868,-0.62578 0.16746,0.0972 0.28895,0.25788 0.43343,0.38682 0.86519,1.20059 1.22805,2.63104 1.49966,4.06147 0.40918,2.22184 0.5423,4.47993 0.64046,6.733 0.0627,1.96293 0.0847,3.92703 0.0978,5.89086 -0.002,0.98875 -0.12791,1.80523 0.9353,2.16779 0.75537,-0.0233 1.49309,-0.20296 2.23239,-0.344 0.93187,-0.25141 1.8966,-0.32221 2.82225,-0.59839 0.52175,-0.15567 1.03265,-0.34571 1.55106,-0.51214 0.25747,-0.0705 0.51495,-0.14106 0.77242,-0.21159 0,0 -3.80151,2.92568 -3.80151,2.92568 v 0 c -0.25355,0.0743 -0.5071,0.14857 -0.76065,0.22286 -1.45894,0.46547 -2.93732,0.80397 -4.441,1.09204 -0.79009,0.15935 -1.6388,0.38256 -2.42577,0.11192 -1.12866,-0.62128 -1.22551,-1.4517 -1.16005,-2.6754 0.0111,-1.96598 0.0237,-3.93243 -0.0421,-5.89775 -0.0853,-2.22776 -0.20305,-4.46245 -0.64184,-6.65395 -0.24729,-1.31895 -0.5719,-2.63683 -1.381,-3.73801 -0.10462,-0.0721 -0.19465,-0.17234 -0.31384,-0.21637 -0.89613,-0.33104 -3.02541,0.58786 -3.91952,0.7628 -3.40053,1.10233 -6.73234,2.38108 -10.02395,3.77524 -2.54922,1.06742 -5.15922,1.9792 -7.68825,3.0895 0,0 3.77853,-3.057 3.77853,-3.057 z"
         id="path4519"
         style="opacity:1;fill:#000000;fill-opacity:1;stroke:none;stroke-width:0.31199998;stroke-linecap:butt;stroke-linejoin:round;stroke-miterlimit:4;stroke-dasharray:none;stroke-dashoffset:0;stroke-opacity:1" />
      <path
         inkscape:connector-curvature="0"
         d="m 212.14721,135.3115 c 1.51382,0.0282 3.02804,0.0193 4.54201,0.0118 0,0 -3.89449,2.82952 -3.89449,2.82952 v 0 c -1.52483,-0.008 -3.04987,-0.0159 -4.57455,0.0118 0,0 3.92703,-2.85316 3.92703,-2.85316 z"
         id="path4521"
         style="opacity:1;fill:#000000;fill-opacity:1;stroke:none;stroke-width:0.31199998;stroke-linecap:butt;stroke-linejoin:round;stroke-miterlimit:4;stroke-dasharray:none;stroke-dashoffset:0;stroke-opacity:1" />
      <path
         inkscape:connector-curvature="0"
         d="m 208.70289,145.89288 c 1.57155,-0.15592 3.14856,-0.23513 4.72622,-0.2944 1.49582,-0.14754 3.00454,-0.1813 4.49058,-0.41111 0,0 -3.85081,2.87524 -3.85081,2.87524 v 0 c -1.49547,0.161 -2.99906,0.2417 -4.49818,0.36278 -1.60325,0.0679 -3.20153,0.18938 -4.8002,0.32455 0,0 3.93239,-2.85706 3.93239,-2.85706 z"
         id="path4523"
         style="opacity:1;fill:#000000;fill-opacity:1;stroke:none;stroke-width:0.31199998;stroke-linecap:butt;stroke-linejoin:round;stroke-miterlimit:4;stroke-dasharray:none;stroke-dashoffset:0;stroke-opacity:1" />
      <path
         inkscape:connector-curvature="0"
         d="m 209.29641,139.77618 c -0.0653,2.39299 -0.0706,4.78743 -0.079,7.1812 -0.009,2.79478 0.0139,5.58947 0.0264,8.3842 -0.0901,1.58582 -0.0701,3.19758 -0.3414,4.76632 -0.28976,1.37007 -0.76825,2.6871 -1.21035,4.01268 -0.33049,1.03616 -0.60169,2.09295 -0.98034,3.11301 -0.13255,0.32192 -0.21819,0.65752 -0.29692,0.99542 0,0 -4.37597,2.12027 -4.37597,2.12027 v 0 c 0.064,-0.36363 0.13132,-0.72657 0.26897,-1.07154 0.40369,-1.01697 0.72373,-2.06253 1.03501,-3.11235 0.42541,-1.31351 0.9188,-2.6058 1.21671,-3.95707 0.38478,-1.5269 0.28324,-3.15518 0.4584,-4.71355 0.0125,-2.8037 0.0349,-5.60737 0.0264,-8.41114 -0.008,-2.36694 -0.0131,-4.7346 -0.079,-7.10074 0,0 4.33093,-2.20671 4.33093,-2.20671 z"
         id="path4525"
         style="opacity:1;fill:#000000;fill-opacity:1;stroke:none;stroke-width:0.31199998;stroke-linecap:butt;stroke-linejoin:round;stroke-miterlimit:4;stroke-dasharray:none;stroke-dashoffset:0;stroke-opacity:1" />
      <path
         inkscape:connector-curvature="0"
         d="m 224.55844,162.37483 c -0.33747,-3.45227 -0.80561,-6.88944 -1.15451,-10.34047 -0.37172,-3.21742 -0.70755,-6.43871 -0.91147,-9.67143 -0.0445,-1.68852 0.0958,-3.37393 0.17374,-5.05947 0.17026,-2.8404 3.77395,-3.99541 6.33471,-4.2128 0.87439,-0.0759 1.75158,0.003 2.62407,0.0635 0.40592,0.0282 1.1263,0.0625 1.53737,0.17584 0.20084,0.0554 0.38458,0.16039 0.57687,0.24059 0.14892,0.1267 0.32587,0.22644 0.44677,0.38011 0.98319,1.24975 0.65328,4.42058 0.58481,5.85879 -0.57448,5.3746 -1.44503,10.71355 -2.15322,16.07232 -0.35291,2.5058 -0.64785,5.01879 -0.92806,7.53352 0,0 -4.1132,2.03387 -4.1132,2.03387 v 0 c 0.32903,-2.53009 0.66764,-5.05885 1.02222,-7.5855 0.69882,-5.31552 1.54172,-10.61756 2.01941,-15.95814 0.0313,-1.0984 0.28063,-4.43877 -0.52852,-5.38012 -0.0958,-0.11144 -0.2378,-0.17269 -0.3567,-0.25903 -1.45733,-0.48221 -3.07753,-0.38894 -4.58848,-0.29961 -0.22842,0.0381 -0.46006,0.0604 -0.68526,0.11437 -0.18627,0.0446 -0.70591,0.28526 -0.54553,0.18053 1.20091,-0.78423 2.45404,-1.48541 3.68106,-2.22812 -0.11019,0.0735 -0.2407,0.12317 -0.33057,0.22047 -0.0938,0.10159 -0.16222,0.229 -0.20581,0.36025 -0.0559,0.16844 -0.0588,0.35007 -0.0882,0.5251 -0.10146,1.68194 -0.24673,3.36282 -0.26334,5.04846 0.1356,3.24786 0.40424,6.48722 0.77362,9.71701 0.3513,3.40729 0.80008,6.80426 1.35195,10.18504 0,0 -4.27369,2.2849 -4.27369,2.2849 z"
         id="path4527"
         style="opacity:1;fill:#000000;fill-opacity:1;stroke:none;stroke-width:0.31199998;stroke-linecap:butt;stroke-linejoin:round;stroke-miterlimit:4;stroke-dasharray:none;stroke-dashoffset:0;stroke-opacity:1" />
      <path
         inkscape:connector-curvature="0"
         d="m 242.61104,115.17712 c 0.45739,8.38027 0.53576,16.78162 0.73266,25.1723 0.22206,7.54952 0.52216,15.10041 1.0631,22.63442 0,0 -3.95444,2.04255 -3.95444,2.04255 v 0 c -0.29932,-7.60823 -0.48953,-15.22095 -0.70726,-22.83184 -0.15285,-5.56945 -0.32426,-11.1337 -0.65018,-16.69629 -0.13653,-2.33019 -0.25359,-4.2632 -0.5151,-6.53258 -0.0599,-0.51966 -0.14953,-1.03545 -0.2243,-1.55318 0,0 4.25552,-2.23538 4.25552,-2.23538 z"
         id="path4529"
         style="opacity:1;fill:#000000;fill-opacity:1;stroke:none;stroke-width:0.31199998;stroke-linecap:butt;stroke-linejoin:round;stroke-miterlimit:4;stroke-dasharray:none;stroke-dashoffset:0;stroke-opacity:1" />
      <path
         inkscape:connector-curvature="0"
         d="m 211.0288,104.38458 c 2.48287,0.43135 4.97685,0.79132 7.48349,1.05421 3.29292,0.31432 6.60109,0.38748 9.90661,0.42426 2.343,0.0156 4.68608,0.006 7.0291,0.002 2.13486,0.002 4.2697,-0.005 6.40454,-0.0122 1.4389,-0.0116 2.87782,-0.0128 4.31676,-0.0118 1.18767,-0.004 2.37535,-0.004 3.56303,-0.005 0.91467,-0.002 1.82933,-0.005 2.74399,-0.007 0.76449,-10e-4 1.52899,-10e-4 2.29348,-10e-4 0.75401,-2e-5 1.50802,2e-5 2.26204,3e-5 0.72495,0.0959 1.33411,-0.15272 1.98962,-0.40559 0.69574,-0.24432 1.4325,-0.29831 2.16291,-0.33466 0.88406,-0.21477 1.79339,-0.28123 2.69846,-0.33918 0.86002,-0.0487 1.72155,-0.0542 2.58269,-0.057 0.75367,0.0327 1.52107,-0.0763 2.26357,0.0718 0.82632,0.29882 1.39221,0.95029 1.89796,1.63736 0.70551,0.93156 1.14234,2.00298 1.64769,3.04447 0.67948,1.24844 1.21441,2.56238 1.64055,3.91645 0.63688,2.39681 0.80682,4.87877 1.07709,7.33448 0.48689,4.74309 0.7805,9.50191 1.08479,14.2592 0.40109,6.10886 0.52282,12.23032 0.76775,18.34629 0.14726,3.92447 0.29583,7.84886 0.41312,11.77435 0.034,1.23286 0.019,0.64817 0.0458,1.75406 0,0 -4.27369,2.1817 -4.27369,2.1817 v 0 c 0.01,-1.12212 0.006,-0.52877 0.0122,-1.78004 0.003,-3.95981 -0.0571,-7.91963 -0.19036,-11.87728 -0.19781,-6.11392 -0.32862,-12.23254 -0.75557,-18.33614 -0.3482,-4.72213 -0.6929,-9.44575 -1.24648,-14.14938 -0.30703,-2.41076 -0.50385,-4.84741 -1.13279,-7.20296 -0.42529,-1.32835 -0.9689,-2.61333 -1.64375,-3.83535 -0.49062,-1.01354 -0.90025,-2.06493 -1.61063,-2.95603 -0.45235,-0.57994 -0.94421,-1.16888 -1.7078,-1.30588 -0.73733,-0.0492 -1.47802,-0.009 -2.21653,-0.021 -0.8511,0.005 -1.70278,0.0146 -2.5521,0.0752 -0.91118,0.0736 -1.80995,0.2156 -2.71335,0.34812 -0.71161,0.0631 -1.4174,0.17222 -2.08232,0.44771 -0.68077,0.24134 -1.36749,0.30964 -2.08925,0.26501 -0.75404,2e-5 -1.50809,5e-5 -2.26213,3e-5 -0.76347,-5e-5 -1.52694,-1e-4 -2.29042,-10e-4 -0.90858,-0.001 -1.81716,-0.004 -2.72575,-0.007 -1.18265,-0.002 -2.36531,-0.001 -3.54796,-0.006 -1.42861,0.001 -2.8572,-2e-5 -4.28578,-0.0105 -2.12882,-0.005 -4.25764,-0.009 -6.38646,-5.3e-4 -2.33135,0.002 -4.66282,0.004 -6.9939,-0.0376 -3.30103,-0.0678 -6.60456,-0.16297 -9.89237,-0.48517 -2.55547,-0.26437 -5.09685,-0.62445 -7.64581,-0.94291 0,0 3.95807,-2.80932 3.95807,-2.80932 z"
         id="path4531"
         style="opacity:1;fill:#000000;fill-opacity:1;stroke:none;stroke-width:0.31199998;stroke-linecap:butt;stroke-linejoin:round;stroke-miterlimit:4;stroke-dasharray:none;stroke-dashoffset:0;stroke-opacity:1" />
      <path
         inkscape:connector-curvature="0"
         d="m 271.06332,104.12037 c 2.36466,-0.81491 4.76626,-1.51281 7.11343,-2.37752 0.54036,-0.2254 1.08249,-0.44663 1.6211,-0.67619 0.5515,-0.23506 1.10921,-0.45713 1.64915,-0.71764 0.5421,-0.26155 2.10076,-1.172895 1.59451,-0.847336 -0.7946,0.510996 -1.63153,0.953596 -2.4615,1.404886 -0.48673,0.26465 0.96031,-0.55318 1.4314,-0.84477 0.44278,-0.274072 0.87304,-0.567874 1.30955,-0.851809 3.05046,-2.23548 6.37352,-4.032509 9.64727,-5.912379 0.88564,-0.443465 1.82631,-0.753356 2.72608,-1.162439 0,0 -3.78198,2.991409 -3.78198,2.991409 v 0 c -0.89972,0.370644 -1.81343,0.712567 -2.66983,1.179663 7.79486,-4.527569 -0.15074,-0.0076 -1.55917,1.199414 -1.5377,1.027655 -1.11672,0.781288 -2.75735,1.731542 -3.40178,1.970299 -6.70552,4.049909 -10.41998,5.373719 -2.41083,0.86861 -4.86204,1.61707 -7.27334,2.48549 0,0 3.83066,-2.97604 3.83066,-2.97604 z"
         id="path4533"
         style="opacity:1;fill:#000000;fill-opacity:1;stroke:none;stroke-width:0.31199998;stroke-linecap:butt;stroke-linejoin:round;stroke-miterlimit:4;stroke-dasharray:none;stroke-dashoffset:0;stroke-opacity:1" />
      <path
         inkscape:connector-curvature="0"
         d="m 213.99456,91.464312 c 3.20094,0.04022 6.39676,0.258971 9.58899,0.48609 6.27164,0.382804 12.52294,1.029483 18.78397,1.546367 7.74354,0.573302 15.49245,1.089105 23.24234,1.571678 7.41281,0.420336 14.82053,0.926127 22.23265,1.357633 3.42101,0.154355 6.81947,0.555823 10.22297,0.909222 0.2518,0.0433 0.50361,0.0866 0.75541,0.129895 0,0 -3.9352,2.756393 -3.9352,2.756393 v 0 c -0.23754,-0.0422 -0.47506,-0.0844 -0.71258,-0.12657 -3.31356,-0.427519 -6.62704,-0.860735 -9.96431,-1.064326 -7.36457,-0.517128 -14.72827,-1.036656 -22.09954,-1.452052 -7.78051,-0.485537 -15.5623,-0.961504 -23.33828,-1.512631 -6.29277,-0.491823 -12.5719,-1.178131 -18.87922,-1.469707 -3.27183,-0.191654 -6.55116,-0.359617 -9.8296,-0.274939 0,0 3.9324,-2.857053 3.9324,-2.857053 z"
         id="path4535"
         style="opacity:1;fill:#000000;fill-opacity:1;stroke:none;stroke-width:0.31199998;stroke-linecap:butt;stroke-linejoin:round;stroke-miterlimit:4;stroke-dasharray:none;stroke-dashoffset:0;stroke-opacity:1" />
      <path
         inkscape:connector-curvature="0"
         d="m 295.22168,95.455334 c 0.82672,1.823125 1.03585,3.786698 1.06402,5.764596 -0.20645,3.38735 -1.63242,6.51981 -2.99405,9.57635 -0.83335,1.92599 -0.41391,0.99847 -1.25309,2.78493 0,0 -4.28225,1.94433 -4.28225,1.94433 v 0 c 0.88601,-1.78245 0.44849,-0.85243 1.30431,-2.79394 1.35361,-2.98565 2.76963,-6.05113 3.01953,-9.36336 -0.0119,-1.89085 -0.22346,-3.793952 -1.07704,-5.510926 0,0 4.21857,-2.40198 4.21857,-2.40198 z"
         id="path4537"
         style="opacity:1;fill:#000000;fill-opacity:1;stroke:none;stroke-width:0.31199998;stroke-linecap:butt;stroke-linejoin:round;stroke-miterlimit:4;stroke-dasharray:none;stroke-dashoffset:0;stroke-opacity:1" />
      <path
         inkscape:connector-curvature="0"
         d="m 291.12943,111.29438 c 1.3689,2.33075 2.27099,4.8839 3.12483,7.43633 0.90141,2.90713 1.52718,5.88548 2.09592,8.87181 0,0 -4.22206,2.2388 -4.22206,2.2388 v 0 c -0.41868,-3.0013 -1.03568,-5.97232 -1.93974,-8.86787 -0.86294,-2.48807 -1.76601,-4.9941 -3.22762,-7.20518 0,0 4.16867,-2.47389 4.16867,-2.47389 z"
         id="path4539"
         style="opacity:1;fill:#000000;fill-opacity:1;stroke:none;stroke-width:0.31199998;stroke-linecap:butt;stroke-linejoin:round;stroke-miterlimit:4;stroke-dasharray:none;stroke-dashoffset:0;stroke-opacity:1" />
      <path
         inkscape:connector-curvature="0"
         d="m 295.46317,122.19816 c -0.10046,3.45129 0.16203,6.90122 0.33676,10.34637 0.0923,1.73466 0.17621,3.46974 0.26072,5.20479 0,0 -4.17626,2.14692 -4.17626,2.14692 v 0 c -0.0412,-1.74741 -0.0883,-3.49474 -0.17513,-5.24064 -0.1814,-3.42109 -0.43757,-6.83853 -0.5534,-10.26275 0,0 4.30731,-2.19469 4.30731,-2.19469 z"
         id="path4541"
         style="opacity:1;fill:#000000;fill-opacity:1;stroke:none;stroke-width:0.31199998;stroke-linecap:butt;stroke-linejoin:round;stroke-miterlimit:4;stroke-dasharray:none;stroke-dashoffset:0;stroke-opacity:1" />
      <path
         inkscape:connector-curvature="0"
         d="m 295.85002,140.20087 c -0.10145,3.18267 -0.10068,6.3677 -0.10655,9.55167 -0.003,3.22881 -0.0844,6.4755 0.3928,9.67776 0,0 -4.22693,2.22121 -4.22693,2.22121 v 0 c -0.34261,-3.25726 -0.27842,-6.53293 -0.27781,-9.80383 -0.006,-3.14777 -0.004,-6.29667 -0.10655,-9.4431 0,0 4.32504,-2.20371 4.32504,-2.20371 z"
         id="path4543"
         style="opacity:1;fill:#000000;fill-opacity:1;stroke:none;stroke-width:0.31199998;stroke-linecap:butt;stroke-linejoin:round;stroke-miterlimit:4;stroke-dasharray:none;stroke-dashoffset:0;stroke-opacity:1" />
      <path
         inkscape:connector-curvature="0"
         d="m 263.68458,114.56686 c -0.22645,1.84903 -0.28737,3.71282 -0.33384,5.57343 -0.0386,1.91295 -0.0438,3.8265 -0.0445,5.7398 -0.0798,1.83431 -0.22503,3.6645 -0.29939,5.49919 -0.13108,1.65817 -0.28297,3.31403 -0.36532,4.9756 -0.0556,1.1746 -0.0629,2.35063 -0.062,3.52631 -0.004,0.93599 0.003,1.87199 0.006,2.80797 0.0412,0.88786 -0.0267,1.76348 -0.15439,2.64087 -0.0626,0.39741 -0.10375,0.79745 -0.14239,1.19772 0,0 -4.34596,2.16547 -4.34596,2.16547 v 0 c 0.0343,-0.40954 0.0702,-0.81906 0.13412,-1.22533 0.13145,-0.85745 0.2498,-1.70408 0.18558,-2.57542 0.002,-0.93849 0.004,-1.87699 0.003,-2.81548 0.01,-1.18732 0.02,-2.37499 0.0773,-3.56117 0.0965,-1.66334 0.24951,-3.32174 0.39216,-4.98161 0.0716,-1.83131 0.21158,-3.65745 0.31618,-5.4869 0.003,-1.918 0.002,-3.8361 0.0456,-5.75375 0.0502,-1.85776 0.11206,-3.71539 0.24664,-5.5693 0,0 4.34054,-2.1574 4.34054,-2.1574 z"
         id="path4545"
         style="opacity:1;fill:#000000;fill-opacity:1;stroke:none;stroke-width:0.31199998;stroke-linecap:butt;stroke-linejoin:round;stroke-miterlimit:4;stroke-dasharray:none;stroke-dashoffset:0;stroke-opacity:1" />
      <path
         inkscape:connector-curvature="0"
         d="m 247.50971,162.28201 c 1.28678,-1.69146 2.96803,-2.97935 4.61147,-4.29693 1.50327,-1.12925 2.98472,-2.28715 4.48055,-3.42603 0.65957,-0.45417 0.34335,-0.238 0.94829,-0.64902 0,0 4.50014,-1.77047 4.50014,-1.77047 v 0 c -0.61332,0.43434 -0.2874,0.21759 -0.98108,0.6452 -1.53937,1.11659 -3.00481,2.33409 -4.55599,3.43546 -1.5949,1.29744 -3.28911,2.49197 -4.55168,4.14338 0,0 -4.4517,1.91841 -4.4517,1.91841 z"
         id="path4547"
         style="opacity:1;fill:#000000;fill-opacity:1;stroke:none;stroke-width:0.31199998;stroke-linecap:butt;stroke-linejoin:round;stroke-miterlimit:4;stroke-dasharray:none;stroke-dashoffset:0;stroke-opacity:1" />
      <path
         inkscape:connector-curvature="0"
         d="m 268.71726,168.16439 c -0.15933,0.0597 -0.31771,0.12198 -0.478,0.17909 -0.18243,0.065 -0.37036,0.11485 -0.54999,0.18721 -0.1724,0.0695 -0.66553,0.33022 -0.50442,0.23756 6.46615,-3.71886 4.15718,-2.78111 3.08705,-1.43763 -0.49213,0.79397 -0.46702,1.29912 0.0282,2.06907 0.9041,0.66154 1.98503,0.94761 3.03646,1.27596 0.9547,0.3098 1.94294,0.45998 2.94106,0.52469 0.55536,-0.049 1.11715,-0.12667 1.62737,-0.36779 0.10506,-0.0496 0.39587,-0.24329 0.29482,-0.18597 -1.2783,0.72497 -2.55119,1.45941 -3.8268,2.18912 0.84339,-0.51272 1.52789,-1.24344 2.21576,-1.94219 0.34327,-0.38757 0.75551,-0.70112 1.15607,-1.02522 0,0 4.52215,-1.79266 4.52215,-1.79266 v 0 c -0.42744,0.28265 -0.82852,0.61066 -1.20997,0.95187 -0.66579,0.73508 -1.38499,1.43791 -2.15238,2.06307 -2.2832,1.3129 -3.99804,2.98809 -6.5762,2.92881 -1.01237,-0.10393 -2.00824,-0.30548 -2.97481,-0.62993 -1.14596,-0.35644 -2.34858,-0.71117 -3.24776,-1.54617 -0.55777,-0.89777 -0.74912,-1.57514 -0.27496,-2.57106 1.3361,-2.34555 4.2807,-3.23549 6.7463,-4.05937 0,0 -3.85993,2.95154 -3.85993,2.95154 z"
         id="path4549"
         style="opacity:1;fill:#000000;fill-opacity:1;stroke:none;stroke-width:0.31199998;stroke-linecap:butt;stroke-linejoin:round;stroke-miterlimit:4;stroke-dasharray:none;stroke-dashoffset:0;stroke-opacity:1" />
      <path
         inkscape:connector-curvature="0"
         d="m 292.65811,161.7348 c -0.93253,0.52903 -1.80853,1.06527 -2.38236,1.98997 -0.31994,0.67075 -0.5265,1.41197 -0.30295,2.14031 0.74216,0.53685 1.91743,0.42018 2.79455,0.45253 1.64426,0.0344 3.28915,0.0252 4.93361,0.0123 0.56856,0.034 1.10001,-0.0142 1.62864,-0.22126 0.11647,-0.0456 0.45329,-0.2101 0.34497,-0.14757 -4.57179,2.63908 -5.11509,3.00972 -3.67914,2.05177 0.53438,-0.68803 0.45056,-1.68648 0.46948,-2.51494 0.0378,-0.48815 0.006,-0.92865 -0.16505,-1.38251 0,0 4.23762,-2.36043 4.23762,-2.36043 v 0 c 0.20436,0.51707 0.29041,0.99401 0.23304,1.55771 -0.008,0.94711 0.0326,1.92271 -0.27741,2.83146 -1.47691,2.15411 -4.22635,3.05101 -6.67708,3.01037 -1.64804,-0.002 -3.29647,0.0139 -4.94411,-0.0306 -1.08394,-0.0472 -2.44041,0.0466 -3.16412,-0.91034 -0.2947,-0.83973 -0.16622,-1.68663 0.15165,-2.50742 0.53838,-1.14288 1.15766,-1.61717 2.26725,-2.19836 0,0 4.53141,-1.77302 4.53141,-1.77302 z"
         id="path4551"
         style="opacity:1;fill:#000000;fill-opacity:1;stroke:none;stroke-width:0.31199998;stroke-linecap:butt;stroke-linejoin:round;stroke-miterlimit:4;stroke-dasharray:none;stroke-dashoffset:0;stroke-opacity:1" />
      <path
         inkscape:connector-curvature="0"
         d="m 139.79115,180.12196 c -0.15936,0.0189 -0.3205,0.0265 -0.47809,0.0568 -0.16594,0.032 -0.33111,0.0725 -0.49011,0.12973 -0.14945,0.0538 -0.56917,0.28145 -0.43152,0.20217 7.2897,-4.19851 4.29739,-2.8398 3.27014,-1.65531 -0.46303,0.76793 -0.39088,1.12736 0.24542,1.71586 1.14892,0.69298 2.4847,1.01411 3.78404,1.29878 1.15341,0.2219 2.32812,0.35814 3.5009,0.2628 1.27279,-0.19379 2.66436,-0.20179 3.8136,-0.82713 -8.17172,4.587 -4.37526,2.75947 -3.38739,1.80314 0.37061,-0.35878 0.65548,-0.81011 1.00153,-1.19372 0.30517,-0.33359 0.13785,-0.16883 0.50629,-0.48985 0,0 4.51592,-1.79554 4.51592,-1.79554 v 0 c -0.39069,0.24727 -0.21121,0.11457 -0.54203,0.39321 -0.30329,0.36083 -0.14035,0.1869 -0.49026,0.52041 -0.38632,0.43386 -0.13249,0.23534 -0.51274,0.72038 -1.11952,1.42805 -4.46093,2.79534 -4.87877,3.04144 -1.25324,0.43406 -2.60283,0.55142 -3.91585,0.68366 -1.20023,0.025 -2.39205,-0.10602 -3.56156,-0.38367 -1.36678,-0.33263 -2.79692,-0.66986 -3.96123,-1.49314 -0.74782,-0.74068 -0.98256,-1.29599 -0.57015,-2.31037 1.17974,-2.23201 4.06879,-3.34128 6.51425,-3.53672 0,0 -3.93239,2.85705 -3.93239,2.85705 z"
         id="path4553"
         style="opacity:1;fill:#000000;fill-opacity:1;stroke:none;stroke-width:0.31199998;stroke-linecap:butt;stroke-linejoin:round;stroke-miterlimit:4;stroke-dasharray:none;stroke-dashoffset:0;stroke-opacity:1" />
      <path
         inkscape:connector-curvature="0"
         d="m 168.24301,179.58085 c -1.47901,0.73937 -2.3153,1.16765 3.1196,-1.80254 0.20335,-0.11113 -0.38863,0.25301 -0.57525,0.39041 -0.48877,0.35987 -0.88028,0.75695 -1.26004,1.22573 -0.41437,0.69356 -0.7608,1.55919 -0.56326,2.37517 0.83614,0.77392 2.10479,0.92831 3.18142,1.16261 1.21559,0.25649 2.45358,0.34531 3.69231,0.3824 0.92121,-0.0132 1.73379,-0.36611 2.56417,-0.71421 1.0898,-0.58466 6.08175,-3.26665 -3.37456,1.93261 -0.14421,0.0793 0.27057,-0.18796 0.3985,-0.29148 0.4205,-0.34026 0.75393,-0.73442 1.08204,-1.16062 0.63582,-0.88791 1.12902,-1.86492 1.66212,-2.81543 0.0795,-0.13274 0.15898,-0.26548 0.23846,-0.39822 0,0 4.43778,-1.94838 4.43778,-1.94838 v 0 c -0.0865,0.12327 -0.17308,0.24654 -0.25961,0.36981 -0.52525,0.96832 -1.05477,1.93826 -1.64469,2.86836 -1.46767,2.22532 -3.87787,3.42846 -6.35251,4.44722 -0.85697,0.34541 -1.74283,0.57407 -2.67631,0.53735 -1.2482,-0.0645 -2.49208,-0.19147 -3.71223,-0.47473 -1.24562,-0.28884 -2.68956,-0.49185 -3.51125,-1.57208 -0.28218,-0.93943 0.007,-1.91213 0.39905,-2.78366 1.56686,-2.31939 4.65816,-3.54948 6.96978,-4.74578 0,0 -3.81552,3.01546 -3.81552,3.01546 z"
         id="path4555"
         style="opacity:1;fill:#000000;fill-opacity:1;stroke:none;stroke-width:0.31199998;stroke-linecap:butt;stroke-linejoin:round;stroke-miterlimit:4;stroke-dasharray:none;stroke-dashoffset:0;stroke-opacity:1" />
      <path
         inkscape:connector-curvature="0"
         d="m 181.1957,167.06344 c 2.33712,0.0375 4.67473,0.0386 7.0121,0.0462 3.52232,-0.0483 7.04073,0.0711 10.56024,0.18932 1.97947,-2.7e-4 3.97563,0.27709 5.93996,-0.0466 0,0 -3.85366,2.87283 -3.85366,2.87283 v 0 c -1.95133,0.16056 -3.90593,-0.0719 -5.85901,-0.10562 -3.52663,-0.13196 -7.05271,-0.20873 -10.58212,-0.15302 -2.37974,0.008 -4.75969,0.009 -7.13919,0.0462 0,0 3.92168,-2.84927 3.92168,-2.84927 z"
         id="path4557"
         style="opacity:1;fill:#000000;fill-opacity:1;stroke:none;stroke-width:0.31199998;stroke-linecap:butt;stroke-linejoin:round;stroke-miterlimit:4;stroke-dasharray:none;stroke-dashoffset:0;stroke-opacity:1" />
      <path
         inkscape:connector-curvature="0"
         d="m 181.32322,121.68004 c -0.0763,2.2211 0.13363,4.46073 0.6263,6.62654 0.38004,1.55187 0.78773,2.64317 2.02708,3.66716 0.75359,0.55028 1.67428,0.59792 2.57115,0.67089 0,0 -3.92606,2.79465 -3.92606,2.79465 v 0 c -0.98647,-0.11131 -1.9605,-0.24568 -2.74804,-0.90909 -1.24247,-1.11132 -1.74456,-2.35573 -2.10247,-3.97575 -0.49555,-2.18632 -0.692,-4.43227 -0.77298,-6.67069 0,0 4.32502,-2.20371 4.32502,-2.20371 z"
         id="path4559"
         style="opacity:1;fill:#000000;fill-opacity:1;stroke:none;stroke-width:0.31199998;stroke-linecap:butt;stroke-linejoin:round;stroke-miterlimit:4;stroke-dasharray:none;stroke-dashoffset:0;stroke-opacity:1" />
      <path
         inkscape:connector-curvature="0"
         d="m 180.57022,137.13035 c -0.0433,1.36629 -0.0497,2.73075 0.077,4.09233 0.058,0.92345 0.19715,1.74987 0.9413,2.34532 0.77875,0.47599 1.66193,0.63064 2.55248,0.73962 0.15665,0.013 0.31329,0.026 0.46994,0.0389 0,0 -3.94719,2.80756 -3.94719,2.80756 v 0 c -0.1597,-0.019 -0.3194,-0.0379 -0.4791,-0.0569 -0.95939,-0.156 -1.92186,-0.37253 -2.71841,-0.96325 -0.83156,-0.77177 -1.02773,-1.56617 -1.08867,-2.68575 -0.12709,-1.36945 -0.12406,-2.73659 -0.13826,-4.11117 0,0 4.33092,-2.20671 4.33092,-2.20671 z"
         id="path4561"
         style="opacity:1;fill:#000000;fill-opacity:1;stroke:none;stroke-width:0.31199998;stroke-linecap:butt;stroke-linejoin:round;stroke-miterlimit:4;stroke-dasharray:none;stroke-dashoffset:0;stroke-opacity:1" />
      <path
         inkscape:connector-curvature="0"
         d="m 180.53838,148.49674 c -0.21457,1.44065 -0.45449,2.87432 -0.59511,4.32483 -0.10888,1.24313 -0.12855,2.49095 -0.14238,3.73792 0.009,0.88314 -0.054,1.76776 0.0989,2.64088 0.16794,0.58049 0.71316,0.78923 1.24849,0.92891 0.46568,0.097 0.94183,0.11261 1.41547,0.12922 0,0 -3.94581,2.83499 -3.94581,2.83499 v 0 c -0.5028,-0.0354 -1.00847,-0.0751 -1.49174,-0.23036 -0.68195,-0.25955 -1.29158,-0.64243 -1.51803,-1.37789 -0.17048,-0.90604 -0.12455,-1.81671 -0.11516,-2.73595 0.01,-1.26409 0.0452,-2.52871 0.15448,-3.78861 0.12738,-1.44526 0.36813,-2.87253 0.53319,-4.31144 0,0 4.35766,-2.1525 4.35766,-2.1525 z"
         id="path4563"
         style="opacity:1;fill:#000000;fill-opacity:1;stroke:none;stroke-width:0.31199998;stroke-linecap:butt;stroke-linejoin:round;stroke-miterlimit:4;stroke-dasharray:none;stroke-dashoffset:0;stroke-opacity:1" />
      <path
         inkscape:connector-curvature="0"
         d="m 214.12834,163.86116 c 2.61829,-0.70291 5.3318,-0.86939 8.01579,-1.15654 2.31206,-0.186 4.61112,-0.46144 6.89392,-0.87068 1.5151,-0.27481 3.05047,-0.35886 4.58601,-0.41427 0.99464,-0.0318 1.98984,-0.0335 2.98487,-0.033 0.752,-0.0208 1.48032,-0.0215 2.21357,0.1476 0.67538,0.12098 1.34436,0.20372 2.0125,0.36077 0.4824,0.11322 0.97502,0.16312 1.46764,0.20436 0,0 -3.95896,2.81612 -3.95896,2.81612 v 0 c -0.50476,-0.0591 -1.00772,-0.13157 -1.50232,-0.25134 -0.66669,-0.142 -1.34773,-0.19194 -2.01225,-0.34781 -0.70998,-0.12026 -1.43019,-0.0611 -2.1475,-0.0774 -0.98069,-0.003 -1.9616,-0.006 -2.94195,0.0249 -1.51589,0.0573 -3.02874,0.17632 -4.52342,0.44725 -2.26718,0.37097 -4.54986,0.59644 -6.83847,0.79075 -2.71728,0.28094 -5.45758,0.50498 -8.08768,1.29428 0,0 3.83825,-2.93494 3.83825,-2.93494 z"
         id="path4565"
         style="opacity:1;fill:#000000;fill-opacity:1;stroke:none;stroke-width:0.31199998;stroke-linecap:butt;stroke-linejoin:round;stroke-miterlimit:4;stroke-dasharray:none;stroke-dashoffset:0;stroke-opacity:1" />
      <path
         inkscape:connector-curvature="0"
         d="m 212.90317,168.95138 c 2.06609,-0.14912 4.13685,-0.21923 6.20702,-0.2826 2.14887,-0.17896 4.30399,-0.27104 6.45348,-0.43642 2.18932,-0.20408 4.38691,-0.28625 6.58377,-0.35641 1.24396,-0.0379 2.4884,-0.0594 3.73295,-0.059 1.01371,-8e-4 2.02741,0.004 3.04111,0.007 1.26761,-0.002 2.5352,0.007 3.80281,0.007 0.70987,7.9e-4 1.41973,5.3e-4 2.12959,-0.001 0,0 -3.89397,2.82914 -3.89397,2.82914 v 0 c -0.70875,-0.002 -1.41751,-0.002 -2.12627,-0.001 -1.2736,-2.6e-4 -2.54719,0.009 -3.8208,0.005 -1.01662,10e-4 -2.03324,0.003 -3.04986,8e-4 -1.22263,0.003 -2.44538,-0.001 -3.66778,0.028 -2.18849,0.0555 -4.37502,0.16215 -6.55547,0.36342 -2.15087,0.16088 -4.30603,0.26737 -6.458,0.4131 -2.10463,0.0639 -4.20658,0.16854 -6.30562,0.33635 0,0 3.92704,-2.85316 3.92704,-2.85316 z"
         id="path4567"
         style="opacity:1;fill:#000000;fill-opacity:1;stroke:none;stroke-width:0.31199998;stroke-linecap:butt;stroke-linejoin:round;stroke-miterlimit:4;stroke-dasharray:none;stroke-dashoffset:0;stroke-opacity:1" />
      <path
         inkscape:connector-curvature="0"
         d="m 266.89351,151.5951 c -1.24267,1.03334 -2.40864,2.15041 -3.5539,3.28889 -1.498,1.47354 -3.14927,2.77126 -4.75524,4.12135 -1.38947,1.15118 -2.73314,2.35585 -4.12595,3.50283 -0.27529,0.21209 -0.79461,0.62445 -1.08764,0.79798 -1.56838,0.92879 -3.15087,1.83357 -4.73228,2.73999 -4.43551,2.54232 14.04362,-8.04403 -1.90247,1.04774 9.07742,-5.20495 -0.83789,0.50618 -1.26311,0.74848 -0.7741,0.44108 -1.60893,0.8052 -2.42357,1.16453 -0.14899,0.0849 -0.29799,0.16987 -0.44699,0.25481 0,0 3.77151,-3.03145 3.77151,-3.03145 v 0 c 0.15219,-0.0746 0.30438,-0.14928 0.45658,-0.22392 0.58102,-0.26966 1.16432,-0.53865 1.73302,-0.83375 0.21817,-0.11321 0.85991,-0.4764 0.64821,-0.35151 -0.42151,0.24866 -10.96229,6.36486 1.26861,-0.739 -6.78782,3.9614 -2.22859,1.29415 1.28582,-0.72386 0.2019,-0.11593 0.81354,-0.453 0.61335,-0.33413 -1.1581,0.68767 -2.31673,1.37477 -3.48744,2.04075 -0.3894,0.22152 1.46877,-0.9365 1.10723,-0.76182 1.41585,-1.14777 2.78348,-2.35157 4.1856,-3.51624 1.57309,-1.35898 3.23796,-2.61055 4.72233,-4.07082 1.14605,-1.11774 2.27292,-2.25366 3.48895,-3.2983 0,0 4.49738,-1.82255 4.49738,-1.82255 z"
         id="path4569"
         style="opacity:1;fill:#000000;fill-opacity:1;stroke:none;stroke-width:0.31199998;stroke-linecap:butt;stroke-linejoin:round;stroke-miterlimit:4;stroke-dasharray:none;stroke-dashoffset:0;stroke-opacity:1" />
      <path
         inkscape:connector-curvature="0"
         d="m 180.77519,172.35316 c 2.11971,0.0294 4.24056,0.0755 6.35887,-0.0181 1.93588,-0.13458 3.87292,-0.24518 5.81258,-0.30456 1.53605,-0.0346 3.07264,-0.0426 4.60905,-0.0462 1.05303,-0.002 2.10606,-0.01 3.1591,-0.007 0.59818,5.2e-4 1.19636,-5.3e-4 1.79454,-0.001 0,0 -3.9248,2.85141 -3.9248,2.85141 v 0 c -0.59654,-0.001 -1.19308,-0.002 -1.78962,-0.003 -1.04439,10e-4 -2.08875,-0.009 -3.13314,-0.0105 -1.52738,5.3e-4 -3.05496,-7.9e-4 -4.58186,0.0439 -1.92431,0.0598 -3.84566,0.17299 -5.76801,0.27592 -2.15393,0.0668 -4.30925,0.0217 -6.46375,0.0723 0,0 3.92704,-2.85316 3.92704,-2.85316 z"
         id="path4571"
         style="opacity:1;fill:#000000;fill-opacity:1;stroke:none;stroke-width:0.31199998;stroke-linecap:butt;stroke-linejoin:round;stroke-miterlimit:4;stroke-dasharray:none;stroke-dashoffset:0;stroke-opacity:1" />
      <path
         inkscape:connector-curvature="0"
         d="m 167.76139,172.18446 c -1.10787,-0.0898 -2.08429,-0.51013 -2.86627,-1.29419 -0.56265,-0.80407 -0.7623,-1.70145 -0.47457,-2.63935 0.36941,-0.78214 1.04552,-1.29795 1.71349,-1.81056 0,0 4.50332,-1.78367 4.50332,-1.78367 v 0 c -0.66567,0.45963 -1.29527,0.92715 -1.80469,1.56187 -0.40934,0.72373 -0.28267,1.45779 0.1934,2.13291 0.73273,0.68975 1.6642,0.98378 2.66771,0.97594 0,0 -3.93239,2.85705 -3.93239,2.85705 z"
         id="path4573"
         style="opacity:1;fill:#000000;fill-opacity:1;stroke:none;stroke-width:0.31199998;stroke-linecap:butt;stroke-linejoin:round;stroke-miterlimit:4;stroke-dasharray:none;stroke-dashoffset:0;stroke-opacity:1" />
      <path
         inkscape:connector-curvature="0"
         d="m 187.61043,92.095489 c 0.18858,-1.301205 0.26455,-2.615335 0.31567,-3.928063 0.0477,-0.995405 0.002,-1.99363 0.0743,-2.987492 0.14348,-0.928622 0.19614,-1.868464 0.3241,-2.798411 0.15811,-0.805722 0.54469,-1.445924 1.1679,-1.966036 2.34783,-1.853812 4.96312,-2.908245 7.74562,-3.720934 1.43098,-0.460713 2.86285,-0.93354 4.23798,-1.544008 0,0 -3.78702,2.989774 -3.78702,2.989774 v 0 c -1.39305,0.558985 -2.81467,1.043971 -4.24883,1.48631 -0.69992,0.215323 -1.39212,0.437634 -2.07722,0.69683 -0.19388,0.07335 -0.75521,0.33542 -0.57971,0.225105 2.65281,-1.667465 5.0378,-2.849634 3.2131,-1.935665 -0.71936,0.528804 -1.00673,0.751152 -1.31377,1.638371 -0.18228,0.912098 -0.17432,1.855296 -0.34342,2.771788 -0.12667,0.983978 -0.0268,1.983563 -0.10622,2.972745 -0.0597,1.317744 -0.14794,2.633215 -0.2648,3.947178 0,0 -4.35766,2.152508 -4.35766,2.152508 z"
         id="path4575"
         style="opacity:1;fill:#000000;fill-opacity:1;stroke:none;stroke-width:0.31199998;stroke-linecap:butt;stroke-linejoin:round;stroke-miterlimit:4;stroke-dasharray:none;stroke-dashoffset:0;stroke-opacity:1" />
    </g>
    <text
       transform="scale(1.0065642,0.99347861)"
       xml:space="preserve"
       style="font-style:normal;font-variant:normal;font-weight:normal;font-stretch:normal;font-size:19.05666351px;line-height:1.25;font-family:'Palatino Linotype';-inkscape-font-specification:'Palatino Linotype';letter-spacing:0px;word-spacing:0px;fill:#ffffff;fill-opacity:1;stroke:none;stroke-width:0.47641656"
       x="37.5424"
       y="90.476936"
       id="text4628"><tspan
         sodipodi:role="line"
         id="tspan4626"
         x="37.5424"
         y="90.476936"
         style="font-style:normal;font-variant:normal;font-weight:normal;font-stretch:normal;font-family:'Palatino Linotype';-inkscape-font-specification:'Palatino Linotype';letter-spacing:-0.00100932px;fill:#ffffff;fill-opacity:1;stroke-width:0.47641656">loading...</tspan></text>
    <text
       id="text4644"
       y="69.31115"
       x="35.585133"
       style="font-style:normal;font-variant:normal;font-weight:normal;font-stretch:normal;font-size:30.13884354px;line-height:1.25;font-family:'Poplar Std';-inkscape-font-specification:'Poplar Std';letter-spacing:0px;word-spacing:0px;fill:#ffffff;fill-opacity:1;stroke:none;stroke-width:0.75347102"
       xml:space="preserve"
       transform="scale(1.0065642,0.99347861)"><tspan
         style="font-style:normal;font-variant:normal;font-weight:normal;font-stretch:normal;font-family:'Poplar Std';-inkscape-font-specification:'Poplar Std';letter-spacing:4.73310757px;fill:#ffffff;fill-opacity:1;stroke-width:0.75347102"
         y="69.31115"
         x="35.585133"
         id="tspan4642"
         sodipodi:role="line">TOWN. BUILDER.</tspan></text>
  </g>
</svg>
