# Blender v2.82 (sub 7) OBJ File: ''
# www.blender.org
mtllib cage.mtl
o Cube
v -1.000000 0.000000 0.000000
v -1.000000 1.000000 1.000000
v -1.000000 2.000000 0.000000
v -1.000000 1.000000 -1.000000
v 0.000000 0.000000 -1.000000
v 0.000000 2.000000 -1.000000
v 1.000000 1.000000 -1.000000
v 1.000000 0.000000 0.000000
v 1.000000 2.000000 0.000000
v 1.000000 1.000000 1.000000
v 0.000000 0.000000 1.000000
v 0.000000 2.000000 1.000000
vt 0.000000 0.000000
vt 0.000000 0.000000
vt 0.000000 0.000000
vt 0.000000 0.000000
vt 0.000000 0.000000
vt 0.000000 0.000000
vt 0.000000 0.000000
vt 0.000000 0.000000
vt 0.000000 0.000000
vt 0.000000 0.000000
vt 0.000000 0.000000
vt 0.000000 0.000000
vn 0.0000 0.0000 -1.0000
vn 1.0000 0.0000 0.0000
vn 0.0000 1.0000 0.0000
vn 0.5774 -0.5774 0.5774
vn 0.5774 -0.5774 -0.5774
vn 0.5774 0.5774 0.5774
vn 0.5774 0.5774 -0.5774
usemtl None
s off
f 5/1/1 4/2/1 6/3/1 7/4/1
f 2/5/2 1/6/2 4/2/2 3/7/2
f 8/8/2 7/4/2 9/9/2 10/10/2
f 5/1/3 1/6/3 11/11/3 8/8/3
f 11/11/1 2/5/1 12/12/1 10/10/1
f 6/3/3 3/7/3 12/12/3 9/9/3
f 8/8/4 10/10/4 11/11/4
f 7/4/5 8/8/5 5/1/5
f 1/6/6 5/1/6 4/2/6
f 2/5/7 11/11/7 1/6/7
f 9/9/6 12/12/6 10/10/6
f 6/3/7 9/9/7 7/4/7
f 3/7/4 4/2/4 6/3/4
f 2/5/5 3/7/5 12/12/5
